%TF.GenerationSoftware,KiCad,Pcbnew,10.0.0*%
%TF.CreationDate,2026-04-13T16:41:49+01:00*%
%TF.ProjectId,BateryThingy,42617465-7279-4546-9869-6e67792e6b69,rev?*%
%TF.SameCoordinates,Original*%
%TF.FileFunction,Legend,Bot*%
%TF.FilePolarity,Positive*%
%FSLAX46Y46*%
G04 Gerber Fmt 4.6, Leading zero omitted, Abs format (unit mm)*
G04 Created by KiCad (PCBNEW 10.0.0) date 2026-04-13 16:41:49*
%MOMM*%
%LPD*%
G01*
G04 APERTURE LIST*
%ADD10C,0.150000*%
G04 APERTURE END LIST*
D10*
X64509523Y-17454819D02*
X64509523Y-18169104D01*
X64509523Y-18169104D02*
X64557142Y-18311961D01*
X64557142Y-18311961D02*
X64652380Y-18407200D01*
X64652380Y-18407200D02*
X64795237Y-18454819D01*
X64795237Y-18454819D02*
X64890475Y-18454819D01*
X63509523Y-18454819D02*
X64080951Y-18454819D01*
X63795237Y-18454819D02*
X63795237Y-17454819D01*
X63795237Y-17454819D02*
X63890475Y-17597676D01*
X63890475Y-17597676D02*
X63985713Y-17692914D01*
X63985713Y-17692914D02*
X64080951Y-17740533D01*
X63128570Y-17550057D02*
X63080951Y-17502438D01*
X63080951Y-17502438D02*
X62985713Y-17454819D01*
X62985713Y-17454819D02*
X62747618Y-17454819D01*
X62747618Y-17454819D02*
X62652380Y-17502438D01*
X62652380Y-17502438D02*
X62604761Y-17550057D01*
X62604761Y-17550057D02*
X62557142Y-17645295D01*
X62557142Y-17645295D02*
X62557142Y-17740533D01*
X62557142Y-17740533D02*
X62604761Y-17883390D01*
X62604761Y-17883390D02*
X63176189Y-18454819D01*
X63176189Y-18454819D02*
X62557142Y-18454819D01*
X65890476Y-30804819D02*
X65890476Y-29804819D01*
X65890476Y-30281009D02*
X65319048Y-30281009D01*
X65319048Y-30804819D02*
X65319048Y-29804819D01*
X64461905Y-30757200D02*
X64557143Y-30804819D01*
X64557143Y-30804819D02*
X64747619Y-30804819D01*
X64747619Y-30804819D02*
X64842857Y-30757200D01*
X64842857Y-30757200D02*
X64890476Y-30661961D01*
X64890476Y-30661961D02*
X64890476Y-30281009D01*
X64890476Y-30281009D02*
X64842857Y-30185771D01*
X64842857Y-30185771D02*
X64747619Y-30138152D01*
X64747619Y-30138152D02*
X64557143Y-30138152D01*
X64557143Y-30138152D02*
X64461905Y-30185771D01*
X64461905Y-30185771D02*
X64414286Y-30281009D01*
X64414286Y-30281009D02*
X64414286Y-30376247D01*
X64414286Y-30376247D02*
X64890476Y-30471485D01*
X63557143Y-30804819D02*
X63557143Y-30281009D01*
X63557143Y-30281009D02*
X63604762Y-30185771D01*
X63604762Y-30185771D02*
X63700000Y-30138152D01*
X63700000Y-30138152D02*
X63890476Y-30138152D01*
X63890476Y-30138152D02*
X63985714Y-30185771D01*
X63557143Y-30757200D02*
X63652381Y-30804819D01*
X63652381Y-30804819D02*
X63890476Y-30804819D01*
X63890476Y-30804819D02*
X63985714Y-30757200D01*
X63985714Y-30757200D02*
X64033333Y-30661961D01*
X64033333Y-30661961D02*
X64033333Y-30566723D01*
X64033333Y-30566723D02*
X63985714Y-30471485D01*
X63985714Y-30471485D02*
X63890476Y-30423866D01*
X63890476Y-30423866D02*
X63652381Y-30423866D01*
X63652381Y-30423866D02*
X63557143Y-30376247D01*
X63223809Y-30138152D02*
X62842857Y-30138152D01*
X63080952Y-29804819D02*
X63080952Y-30661961D01*
X63080952Y-30661961D02*
X63033333Y-30757200D01*
X63033333Y-30757200D02*
X62938095Y-30804819D01*
X62938095Y-30804819D02*
X62842857Y-30804819D01*
X62128571Y-30757200D02*
X62223809Y-30804819D01*
X62223809Y-30804819D02*
X62414285Y-30804819D01*
X62414285Y-30804819D02*
X62509523Y-30757200D01*
X62509523Y-30757200D02*
X62557142Y-30661961D01*
X62557142Y-30661961D02*
X62557142Y-30281009D01*
X62557142Y-30281009D02*
X62509523Y-30185771D01*
X62509523Y-30185771D02*
X62414285Y-30138152D01*
X62414285Y-30138152D02*
X62223809Y-30138152D01*
X62223809Y-30138152D02*
X62128571Y-30185771D01*
X62128571Y-30185771D02*
X62080952Y-30281009D01*
X62080952Y-30281009D02*
X62080952Y-30376247D01*
X62080952Y-30376247D02*
X62557142Y-30471485D01*
X61652380Y-30804819D02*
X61652380Y-30138152D01*
X61652380Y-30328628D02*
X61604761Y-30233390D01*
X61604761Y-30233390D02*
X61557142Y-30185771D01*
X61557142Y-30185771D02*
X61461904Y-30138152D01*
X61461904Y-30138152D02*
X61366666Y-30138152D01*
M02*
