M48
; DRILL file KiCad 10.0.0 date 2026-04-13T16:41:52
; FORMAT={-:-/ absolute / metric / decimal}
; #@! TF.CreationDate,2026-04-13T16:41:52+01:00
; #@! TF.GenerationSoftware,Kicad,Pcbnew,10.0.0
; #@! TF.FileFunction,Plated,1,2,PTH
FMAT,2
METRIC
; #@! TA.AperFunction,Plated,PTH,ViaDrill
T1C0.300
; #@! TA.AperFunction,Plated,PTH,ComponentDrill
T2C0.813
; #@! TA.AperFunction,Plated,PTH,ComponentDrill
T3C1.000
; #@! TA.AperFunction,Plated,PTH,ComponentDrill
T4C1.020
; #@! TA.AperFunction,Plated,PTH,ComponentDrill
T5C1.100
; #@! TA.AperFunction,Plated,PTH,ComponentDrill
T6C1.200
; #@! TA.AperFunction,Plated,PTH,ComponentDrill
T7C1.290
; #@! TA.AperFunction,Plated,PTH,ComponentDrill
T8C1.320
; #@! TA.AperFunction,Plated,PTH,ComponentDrill
T9C2.100
%
G90
G05
T1
X69.7Y-24.0
X76.7Y-77.0
X76.7Y-107.0
X76.7Y-136.0
X82.7Y-25.0
X84.7Y-25.0
X85.623Y-24.923
X85.7Y-28.0
X86.7Y-27.0
X87.7Y-26.0
X109.209Y-62.0
X111.7Y-120.0
X112.7Y-47.0
X112.7Y-50.0
X112.7Y-55.0
X113.7Y-53.0
X114.7Y-54.0
X115.7Y-53.0
X116.7Y-53.0
X118.7Y-63.0
X118.7Y-65.0
X119.7Y-62.0
X120.7Y-62.0
X121.7Y-59.162
X134.7Y-110.0
X161.7Y-46.0
X168.7Y-126.0
X169.7Y-126.0
X169.7Y-127.0
X172.7Y-128.0
T2
X99.42Y-134.6
X100.16Y-45.0
X100.2Y-74.46
X100.42Y-104.6
X101.96Y-132.06
X102.7Y-42.46
X102.74Y-71.92
X102.96Y-102.06
X104.5Y-134.6
X105.24Y-45.0
X105.28Y-74.46
X105.5Y-104.6
X155.16Y-63.54
X155.16Y-81.54
X155.62Y-100.0
X156.16Y-118.54
X157.7Y-61.0
X157.7Y-79.0
X158.16Y-97.46
X158.7Y-116.0
X160.24Y-63.54
X160.24Y-81.54
X160.7Y-100.0
X161.24Y-118.54
X180.38Y-31.0
X180.38Y-38.62
X182.92Y-31.0
X182.92Y-38.62
X185.46Y-31.0
X185.46Y-38.62
X188.0Y-31.0
X188.0Y-38.62
T3
X80.08Y-21.0
X82.62Y-21.0
X85.16Y-21.0
X87.7Y-21.0
X90.24Y-21.0
X92.78Y-21.0
X155.62Y-27.0
X157.7Y-36.0
X158.16Y-27.0
X160.24Y-36.0
X160.7Y-27.0
X163.24Y-27.0
X170.7Y-27.0
X173.24Y-27.0
X175.78Y-27.0
X185.0Y-27.0
X187.54Y-27.0
X203.0Y-30.46
X203.0Y-33.0
T4
X116.27Y-61.68
X116.27Y-64.22
X116.27Y-66.76
X116.27Y-69.3
X116.27Y-71.84
X116.27Y-74.38
X116.27Y-76.92
X116.27Y-79.46
X116.27Y-82.0
X116.27Y-84.54
X116.27Y-87.08
X116.27Y-89.62
X116.27Y-92.16
X116.27Y-94.7
X116.27Y-97.24
X116.27Y-99.78
X116.27Y-102.32
X116.27Y-104.86
X116.27Y-107.4
X116.27Y-109.94
X116.27Y-112.48
X116.27Y-115.02
X139.13Y-61.68
X139.13Y-64.22
X139.13Y-66.76
X139.13Y-69.3
X139.13Y-71.84
X139.13Y-74.38
X139.13Y-76.92
X139.13Y-79.46
X139.13Y-82.0
X139.13Y-84.54
X139.13Y-87.08
X139.13Y-89.62
X139.13Y-92.16
X139.13Y-94.7
X139.13Y-97.24
X139.13Y-99.78
X139.13Y-102.32
X139.13Y-104.86
X139.13Y-107.4
X139.13Y-109.94
X139.13Y-112.48
X139.13Y-115.02
T5
X78.7Y-105.0
X78.7Y-115.2
X78.7Y-135.0
X78.7Y-145.2
X78.9Y-45.4
X78.9Y-55.6
X78.94Y-75.12
X78.94Y-85.32
X90.5Y-104.52
X90.5Y-114.68
X90.5Y-134.6
X90.5Y-144.76
X90.7Y-45.0
X90.7Y-55.16
X90.74Y-74.84
X90.74Y-85.0
X167.7Y-54.0
X167.7Y-64.16
X167.7Y-72.0
X167.7Y-82.16
X167.7Y-90.0
X167.7Y-100.16
X167.7Y-108.0
X167.7Y-118.16
X168.2Y-153.0
X168.2Y-157.5
X174.7Y-153.0
X174.7Y-157.5
X181.2Y-153.0
X181.2Y-157.5
X187.7Y-153.0
X187.7Y-157.5
X194.2Y-153.0
X194.2Y-157.5
X200.7Y-153.0
X200.7Y-157.5
T6
X98.5Y-83.6
X98.5Y-96.3
X98.5Y-113.25
X98.5Y-125.95
X98.7Y-23.65
X98.7Y-36.35
X98.74Y-53.92
X98.74Y-66.62
X106.5Y-83.6
X106.5Y-96.3
X106.5Y-113.25
X106.5Y-125.95
X106.7Y-23.65
X106.7Y-36.35
X106.74Y-53.57
X106.74Y-66.27
X116.35Y-22.0
X116.35Y-30.0
X116.35Y-36.0
X116.35Y-42.0
X116.35Y-48.15
X116.35Y-130.0
X116.35Y-136.0
X116.35Y-141.7
X116.35Y-148.0
X129.05Y-22.0
X129.05Y-30.0
X129.05Y-36.0
X129.05Y-42.0
X129.05Y-48.15
X129.05Y-130.0
X129.05Y-136.0
X129.05Y-141.7
X129.05Y-148.0
X137.35Y-36.0
X137.65Y-22.0
X137.65Y-30.0
X138.0Y-42.0
X138.0Y-48.0
X140.35Y-130.0
X140.35Y-136.0
X140.35Y-141.7
X140.35Y-148.0
X144.7Y-54.65
X144.7Y-67.35
X144.7Y-72.65
X144.7Y-85.35
X144.7Y-91.0
X144.7Y-103.7
X144.7Y-110.0
X144.7Y-122.7
X149.35Y-73.0
X149.7Y-55.0
X149.7Y-91.0
X149.7Y-110.0
X150.05Y-36.0
X150.35Y-22.0
X150.35Y-30.0
X150.7Y-42.0
X150.7Y-48.0
X153.05Y-130.0
X153.05Y-136.0
X153.05Y-141.7
X153.05Y-148.0
X157.35Y-43.0
X162.05Y-73.0
X162.4Y-55.0
X162.4Y-91.0
X162.4Y-110.0
X170.05Y-43.0
X175.65Y-43.0
X187.35Y-135.0
X187.35Y-140.0
X187.35Y-145.0
X188.35Y-43.0
X200.05Y-135.0
X200.05Y-140.0
X200.05Y-145.0
T7
X172.5Y-59.0
X172.6Y-77.0
X172.6Y-95.0
X172.6Y-113.0
T8
X174.5Y-53.0
X174.5Y-65.0
X174.6Y-71.0
X174.6Y-83.0
X174.6Y-89.0
X174.6Y-101.0
X174.6Y-107.0
X174.6Y-119.0
X186.7Y-53.0
X186.7Y-65.0
X186.8Y-71.0
X186.8Y-83.0
X186.8Y-89.0
X186.8Y-101.0
X186.8Y-107.0
X186.8Y-119.0
T9
X55.9Y-101.2
X55.9Y-131.2
X56.1Y-41.6
X56.14Y-71.32
X63.5Y-101.2
X63.5Y-131.2
X63.7Y-41.6
X63.74Y-71.32
X66.0Y-119.0
X66.0Y-149.0
X66.2Y-59.4
X66.24Y-89.12
X81.2Y-110.1
X81.2Y-140.1
X81.4Y-50.5
X81.44Y-80.22
M30
